<svg width="276" height="243" viewBox="0 0 276 243" fill="none" xmlns="http://www.w3.org/2000/svg">
<mask id="mask0_1312_31149" style="mask-type:alpha" maskUnits="userSpaceOnUse" x="0" y="0" width="276" height="243">
<rect width="276" height="243" transform="matrix(-1 0 0 1 276 0)" fill="#C4C4C4"/>
</mask>
<g mask="url(#mask0_1312_31149)">
<path fill-rule="evenodd" clip-rule="evenodd" d="M76.618 213.188L79.8622 219.235L92.8856 213.629L90.018 206.238L76.618 213.188Z" fill="url(#paint0_linear_1312_31149)"/>
<path fill-rule="evenodd" clip-rule="evenodd" d="M74.4475 237.659L98.9881 227.489L92.8857 213.629L79.8622 219.235L71.3623 233.132C71.3623 233.132 69.656 235.493 72.6745 237.988C72.6745 237.988 73.2101 238.171 74.4475 237.659Z" fill="#E2DFE2"/>
<path fill-rule="evenodd" clip-rule="evenodd" d="M77.6614 222.893L93.7501 215.59L97.2351 223.506L80.2791 231.269L73.574 229.517L77.6614 222.893Z" fill="#7E5452"/>
<mask id="mask1_1312_31149" style="mask-type:alpha" maskUnits="userSpaceOnUse" x="31" y="213" width="19" height="13">
<path fill-rule="evenodd" clip-rule="evenodd" d="M49.2509 218.887L45.5611 225.881L31.8383 219.784L34.8614 213.189L49.2509 218.887Z" fill="white"/>
</mask>
<g mask="url(#mask1_1312_31149)">
<path fill-rule="evenodd" clip-rule="evenodd" d="M49.2509 218.887L45.5611 225.881L31.8383 219.784L34.8614 213.189L49.2509 218.887Z" fill="url(#paint1_linear_1312_31149)"/>
</g>
<path fill-rule="evenodd" clip-rule="evenodd" d="M11.2847 229.974L40.108 243.254L47.3179 226.661L31.8385 219.783L12.7559 223.598C12.7559 223.598 9.30004 224.017 9.55967 228.685C9.55967 228.685 9.83333 229.306 11.2847 229.974Z" fill="#E2DFE2"/>
<path fill-rule="evenodd" clip-rule="evenodd" d="M26.8444 220.818L46.2977 229.009L42.1787 238.487L21.4858 230.739L17.6101 222.627L26.8444 220.818Z" fill="#7E5452"/>
<path fill-rule="evenodd" clip-rule="evenodd" d="M9.83547 226.046L40.5767 242.176L40.1089 243.255L10.5594 229.852C10.5594 229.852 8.47418 229.107 9.83547 226.046Z" fill="#C4B8BA"/>
<mask id="mask2_1312_31149" style="mask-type:alpha" maskUnits="userSpaceOnUse" x="27" y="226" width="21" height="18">
<path fill-rule="evenodd" clip-rule="evenodd" d="M45.9645 226.061L27.8959 237.872L40.1089 243.254L47.3176 226.662L45.9645 226.061Z" fill="white"/>
</mask>
<g mask="url(#mask2_1312_31149)">
</g>
<path fill-rule="evenodd" clip-rule="evenodd" d="M126.401 192.026L150 243H140.5L115.385 188.418L126.401 192.026Z" fill="#E5A75B"/>
<path fill-rule="evenodd" clip-rule="evenodd" d="M120.306 189.636L145 243H150L125.608 190.358L120.306 189.636Z" fill="#CA722C"/>
<path fill-rule="evenodd" clip-rule="evenodd" d="M147.407 188.375C147.407 188.375 136.701 195.067 123.852 191.586L81.8291 180.612L86.3785 171.512H97.1331L148.746 185.43L147.407 188.375Z" fill="#171B46"/>
<path fill-rule="evenodd" clip-rule="evenodd" d="M157.415 207.126L156.847 206.428L153.376 200.333C153.376 200.333 151.602 195.938 143.734 194.087L94.8298 181.141H102.175L150.637 193.167L158.768 197.018L160.195 206.291L157.415 207.126Z" fill="#9F4722"/>
<path fill-rule="evenodd" clip-rule="evenodd" d="M186.069 155.439C186.069 157.53 187.677 159.225 189.66 159.225C191.644 159.225 193.252 157.53 193.252 155.439C193.252 153.346 191.644 151.651 189.66 151.651C187.677 151.651 186.069 153.346 186.069 155.439Z" fill="#8B91B7"/>
<path fill-rule="evenodd" clip-rule="evenodd" d="M218.225 132.829C218.225 132.829 222.459 155.473 220.342 163.85H214.727C214.727 163.85 215.365 147.629 218.225 132.829Z" fill="url(#paint2_linear_1312_31149)"/>
<path fill-rule="evenodd" clip-rule="evenodd" d="M155.58 93.2944L200.333 94.2031L201.888 99.9056C201.888 99.9056 196.316 100.035 193.206 109.754L181.09 148.044C181.09 148.044 169.234 189.492 155.58 189.092C155.58 189.092 147.971 189.158 145.258 188.426L97.1321 174.836C97.1321 174.836 91.832 172.439 88.6346 175.103L80.9394 183.465C80.9394 183.465 79.7722 185.185 75.7761 185.062H52.909L54.0153 182.604C54.0153 182.604 55.6129 178.115 62.8064 177.071L73.3166 177.932C73.3166 177.932 75.3738 175.146 78.0016 172.359C81.2189 168.947 85.7191 167.038 90.4076 166.965C92.0378 166.942 93.6646 167.143 95.2376 167.566L146.179 181.264C146.179 181.264 156.607 178.022 161.82 157.449C161.82 157.449 166.893 133.636 176.615 118.277L155.58 93.2944Z" fill="#4A5C86"/>
<path fill-rule="evenodd" clip-rule="evenodd" d="M90.2298 132.977C90.2298 132.977 67.8493 127.155 57.2362 137.338C57.2362 137.338 47.7586 145.825 51.5407 164.398C51.5407 164.398 57.4853 188.936 77.5268 216.689L92.3022 209.664L83.7427 163.266L90.2298 132.977Z" fill="url(#paint3_linear_1312_31149)"/>
<path fill-rule="evenodd" clip-rule="evenodd" d="M247.56 179.111C247.56 179.111 251.099 152.672 254.951 143.095C254.951 143.095 266.199 141.606 273.635 111.494L268.875 110.679L274.21 109.025C274.21 109.025 279.834 83.6845 271.144 76.0804C271.144 76.0804 265.403 74.2198 259.506 85.8574C259.506 85.8574 249.654 103.842 248.714 119.26C248.714 119.26 247.327 139.332 252.378 142.105C252.378 142.105 244.752 170.533 244.157 177.467L243.761 179.943L247.56 179.111Z" fill="#4DBC98"/>
<path fill-rule="evenodd" clip-rule="evenodd" d="M259.666 139.961C255.453 144.73 253.727 142.25 253.727 142.25C254.152 130.994 271.144 76.0806 271.144 76.0806C272.137 76.8135 273.323 78.7877 273.323 78.7877L259.666 139.961Z" fill="url(#paint4_linear_1312_31149)"/>
<path fill-rule="evenodd" clip-rule="evenodd" d="M247.027 178.716C247.027 178.716 244.818 140.268 247.027 123.623C247.027 123.623 258.586 127.938 260.081 84.4401C260.081 84.4401 260.016 74.3521 259.148 73.5919L255.354 73.0504L259.148 71.0985C259.148 71.0985 257.049 53.6427 249.243 54.9443C249.243 54.9443 238.24 57.5476 236.23 91.3798C236.23 91.3798 237.294 118.944 243.8 122.61C243.8 122.61 241.923 170.612 244.098 178.716H247.027Z" fill="#20A592"/>
<path fill-rule="evenodd" clip-rule="evenodd" d="M239.541 97.8882C239.541 97.8882 245.649 58.7168 248.305 55.3559C248.305 55.3559 249.187 54.6954 250.271 54.8753C250.271 54.8753 246.695 107.262 246.44 123.405C246.44 123.405 238.009 122.884 239.541 97.8882Z" fill="url(#paint5_linear_1312_31149)"/>
<path opacity="0.2" fill-rule="evenodd" clip-rule="evenodd" d="M209.358 33.4298C209.358 40.1263 214.787 45.554 221.482 45.554C228.179 45.554 233.606 40.1263 233.606 33.4298C233.606 26.7333 228.179 21.3069 221.482 21.3069C214.787 21.3069 209.358 26.7333 209.358 33.4298Z" fill="#A692E7"/>
<path fill-rule="evenodd" clip-rule="evenodd" d="M60.8241 77.3267C60.8241 80.2294 63.1783 82.5836 66.081 82.5836C68.986 82.5836 71.339 80.2294 71.339 77.3267C71.339 74.424 68.986 72.0698 66.081 72.0698C63.1783 72.0698 60.8241 74.424 60.8241 77.3267Z" fill="url(#paint6_linear_1312_31149)"/>
<path d="M0.35083 7.84C0.35083 5.09574 0.35083 3.72361 0.884898 2.67545C1.35468 1.75345 2.10428 1.00385 3.02628 0.534068C4.07444 0 5.44657 0 8.19083 0H58.821C61.5653 0 62.9374 0 63.9856 0.534068C64.9075 1.00385 65.6572 1.75345 66.1269 2.67545C66.661 3.72361 66.661 5.09574 66.661 7.84V45.7976C66.661 48.5418 66.661 49.9139 66.1269 50.9621C65.6572 51.8841 64.9075 52.6337 63.9856 53.1035C62.9374 53.6376 61.5653 53.6376 58.821 53.6376H0.35083V7.84Z" fill="white"/>
<mask id="mask3_1312_31149" style="mask-type:alpha" maskUnits="userSpaceOnUse" x="0" y="0" width="67" height="54">
<path d="M0.35083 7.84C0.35083 5.09574 0.35083 3.72361 0.884898 2.67545C1.35468 1.75345 2.10428 1.00385 3.02628 0.534068C4.07444 0 5.44657 0 8.19083 0H58.821C61.5653 0 62.9374 0 63.9856 0.534068C64.9075 1.00385 65.6572 1.75345 66.1269 2.67545C66.661 3.72361 66.661 5.09574 66.661 7.84V45.7976C66.661 48.5418 66.661 49.9139 66.1269 50.9621C65.6572 51.8841 64.9075 52.6337 63.9856 53.1035C62.9374 53.6376 61.5653 53.6376 58.821 53.6376H0.35083V7.84Z" fill="white"/>
</mask>
<g mask="url(#mask3_1312_31149)">
<rect x="-9.47296" y="41.7507" width="77.7534" height="14.631" fill="url(#paint7_linear_1312_31149)"/>
<rect opacity="0.1" x="18.8395" y="45.1819" width="31.9271" height="4.38931" rx="1.87659" fill="#D8D8D8"/>
<rect x="13.3547" y="45.1819" width="17.1097" height="4.38931" rx="1.87659" fill="#FF3366"/>
<ellipse cx="58.3431" cy="47.3169" rx="2.66644" ry="2.70945" fill="white"/>
<g opacity="0.5">
<ellipse cx="6.69437" cy="47.3386" rx="3.88767" ry="3.95037" fill="#FF3366"/>
<path fill-rule="evenodd" clip-rule="evenodd" d="M6.41629 45.9794C6.16706 45.8105 5.83047 45.9891 5.83047 46.2901V48.3864C5.83047 48.6874 6.16706 48.866 6.41629 48.6971L7.96356 47.649C8.18332 47.5001 8.18332 47.1764 7.96355 47.0275L6.41629 45.9794Z" fill="white"/>
</g>
<rect x="-1.94151" y="-1.14624" width="68.7661" height="44.2068" fill="url(#paint8_linear_1312_31149)"/>
<g opacity="0.8">
<path fill-rule="evenodd" clip-rule="evenodd" d="M41.2106 34.9226L48.2913 36.3196C48.2913 36.3196 50.7324 36.648 54.4756 41.7419H15.0864L16.2077 39.4421C16.2077 39.4421 17.6785 36.6291 21.3545 36.1594C21.3545 36.1594 27.8563 34.9482 29.9446 34.7534C29.9446 34.7534 30.1618 39.333 34.5346 39.4588C34.5346 39.4588 39.5414 40.0276 39.6968 34.7534L41.2106 34.9226Z" fill="url(#paint9_linear_1312_31149)"/>
<path fill-rule="evenodd" clip-rule="evenodd" d="M31.7279 15.0833C31.7279 15.0833 36.3951 17.9241 43.9399 17.0202V24.5764C43.9399 25.9823 43.6676 27.3882 43.0325 28.6383C42.4162 29.8494 41.3974 31.0995 39.7204 31.6728V34.753C39.7204 34.753 39.9751 38.9674 35.1811 39.8056C35.1811 39.8056 30.0652 39.8991 29.8734 34.753V28.2521C29.8734 28.2521 26.3573 25.9278 26.1654 23.0235C26.1654 23.0235 26.0221 20.0858 29.0101 20.9708C29.0101 20.9708 29.5294 21.3315 29.6915 22.3478C29.6915 22.3478 30.2119 22.7407 30.3728 21.7578C30.3728 21.7578 30.9396 20.6046 31.7279 15.0833Z" fill="url(#paint10_linear_1312_31149)"/>
<path fill-rule="evenodd" clip-rule="evenodd" d="M29.3291 11.3351C29.3291 11.3351 22.9618 16.1574 23.0246 28.6316C23.0246 28.6316 22.3234 33.4538 26.91 34.1607C26.91 34.1607 30.349 34.8041 33.0238 34.1607C33.0238 34.1607 30.3093 31.5826 30.1461 27.2379C30.1461 27.2379 29.1935 28.1396 28.0049 26.2806C28.0049 26.2806 25.8681 24.6409 26.7623 22.4268C26.7623 22.4268 27.2496 21.3336 29.2254 21.8257C29.2254 21.8257 30.1461 22.3733 30.4162 23.9307C30.4162 23.9307 31.0667 23.9028 31.0943 21.2791L31.1208 19.1741C31.1208 19.1741 33.908 17.9719 34.6666 16.114C34.6666 16.114 39.2963 19.5303 43.2744 17.4253L43.41 25.2698C43.41 25.2698 43.7088 29.6969 39.6205 31.5826V34.754H47.0385C47.0385 34.754 48.2227 11.5789 39.3503 9.84461C39.3503 9.84461 32.682 8.64462 29.3291 11.3351Z" fill="url(#paint11_linear_1312_31149)"/>
<path fill-rule="evenodd" clip-rule="evenodd" d="M29.3291 11.3351C29.3291 11.3351 22.9618 16.1574 23.0246 28.6316C23.0246 28.6316 22.3234 33.4538 26.91 34.1607C26.91 34.1607 30.349 34.8041 33.0238 34.1607C33.0238 34.1607 30.3093 31.5826 30.1461 27.2379C30.1461 27.2379 29.1935 28.1396 28.0049 26.2806C28.0049 26.2806 25.8681 24.6409 26.7623 22.4268C26.7623 22.4268 27.2496 21.3336 29.2254 21.8257C29.2254 21.8257 30.1461 22.3733 30.4162 23.9307C30.4162 23.9307 31.0667 23.9028 31.0943 21.2791L31.1208 19.1741C31.1208 19.1741 33.908 17.9719 34.6666 16.114C34.6666 16.114 39.2963 19.5303 43.2744 17.4253L43.41 25.2698C43.41 25.2698 43.7088 29.6969 39.6205 31.5826V34.754H47.0385C47.0385 34.754 48.2227 11.5789 39.3503 9.84461C39.3503 9.84461 32.682 8.64462 29.3291 11.3351Z" fill="black"/>
<path d="M27.576 21.1426L31.3711 22.4951" stroke="white" stroke-width="1.16765"/>
<path fill-rule="evenodd" clip-rule="evenodd" d="M37.0276 22.8168C37.0276 24.3196 35.8214 25.5374 34.3341 25.5374C32.8445 25.5374 31.6383 24.3196 31.6383 22.8168C31.6383 21.314 32.8445 20.0962 34.3341 20.0962C35.8214 20.0962 37.0276 21.314 37.0276 22.8168Z" stroke="white" stroke-width="1.16765"/>
<path fill-rule="evenodd" clip-rule="evenodd" d="M43.9402 22.8168C43.9402 24.3196 42.7329 25.5374 41.2456 25.5374C39.7571 25.5374 38.5509 24.3196 38.5509 22.8168C38.5509 21.314 39.7571 20.0962 41.2456 20.0962C42.7329 20.0962 43.9402 21.314 43.9402 22.8168Z" stroke="white" stroke-width="1.16765"/>
<path fill-rule="evenodd" clip-rule="evenodd" d="M39.9982 23.0817C39.9982 23.4078 40.2595 23.6717 40.5826 23.6717C40.9046 23.6717 41.167 23.4078 41.167 23.0817C41.167 22.7566 40.9046 22.4917 40.5826 22.4917C40.2595 22.4917 39.9982 22.7566 39.9982 23.0817Z" fill="#1E1147"/>
<path fill-rule="evenodd" clip-rule="evenodd" d="M34.7299 23.0817C34.7299 23.4078 34.9912 23.6717 35.3142 23.6717C35.6373 23.6717 35.8997 23.4078 35.8997 23.0817C35.8997 22.7566 35.6373 22.4917 35.3142 22.4917C34.9912 22.4917 34.7299 22.7566 34.7299 23.0817Z" fill="#1E1147"/>
<path d="M39.5245 27.4453C39.5245 27.4453 38.8619 28.9024 36.7284 28.446" stroke="#9F2E00" stroke-width="1.16765"/>
<path fill-rule="evenodd" clip-rule="evenodd" d="M34 32C34 32 36.2441 33.054 39.5 31.5V34.5C39.5 34.5 35.6726 35.0646 34 32Z" fill="black" fill-opacity="0.2"/>
</g>
</g>
<g opacity="0.1" filter="url(#filter0_d_1312_31149)">
<circle cx="7.80051" cy="5.15738" r="1.71915" fill="#DD8B7F"/>
</g>
<g opacity="0.4" filter="url(#filter1_d_1312_31149)">
<circle cx="12.3848" cy="5.15738" r="1.71915" fill="#DD8B7F"/>
</g>
<g filter="url(#filter2_d_1312_31149)">
<circle cx="16.9693" cy="5.15738" r="1.71915" fill="#DD8B7F"/>
</g>
<path fill-rule="evenodd" clip-rule="evenodd" d="M200.581 94.2926C200.581 94.2926 190.117 97.7239 187.028 111.791C187.028 111.791 175.363 150.904 171.76 159.653C171.76 159.653 164.555 185.557 152.204 183.155L112.507 172.127L125.785 144.9L138.136 100.811L162.841 88.1177L200.581 94.2926Z" fill="#384A72"/>
<path fill-rule="evenodd" clip-rule="evenodd" d="M210.332 177.625H226.851C228.003 177.625 228.938 176.69 228.938 175.538V164.039H208.246V175.538C208.246 176.69 209.18 177.625 210.332 177.625Z" fill="#E2E2E2"/>
<path fill-rule="evenodd" clip-rule="evenodd" d="M204.889 177.645H224.111C225.197 177.645 226.078 176.765 226.078 175.678C226.078 174.592 225.197 173.711 224.111 173.711H204.889C203.803 173.711 202.922 174.592 202.922 175.678C202.922 176.765 203.803 177.645 204.889 177.645Z" fill="#4B5579"/>
<path fill-rule="evenodd" clip-rule="evenodd" d="M204.889 177.645H216.27C217.356 177.645 218.238 176.765 218.238 175.678C218.238 174.592 217.356 173.711 216.27 173.711H204.889C203.803 173.711 202.922 174.592 202.922 175.678C202.922 176.765 203.803 177.645 204.889 177.645Z" fill="#242B47"/>
<path fill-rule="evenodd" clip-rule="evenodd" d="M223.563 164.008C223.563 164.008 225.004 156.98 225.004 141.736C225.004 141.736 219.909 149.604 218.529 164.008H223.563Z" fill="url(#paint12_linear_1312_31149)"/>
<path fill-rule="evenodd" clip-rule="evenodd" d="M213.494 164.008C213.494 164.008 211.976 155.794 211.976 140.549C211.976 140.549 217.148 149.604 218.53 164.008H213.494Z" fill="#9CE08A"/>
<path fill-rule="evenodd" clip-rule="evenodd" d="M213.494 164.008C213.494 164.008 211.976 155.794 211.976 140.549C211.976 140.549 217.148 149.604 218.53 164.008H213.494Z" fill="url(#paint13_linear_1312_31149)"/>
<path fill-rule="evenodd" clip-rule="evenodd" d="M177.142 163.729H188.908C189.212 163.729 189.458 163.467 189.458 163.144V149.11C189.458 148.788 189.212 148.525 188.908 148.525H177.142C176.839 148.525 176.593 148.788 176.593 149.11V163.144C176.593 163.467 176.839 163.729 177.142 163.729Z" fill="white"/>
<path fill-rule="evenodd" clip-rule="evenodd" d="M176.943 163.729H184.43C184.623 163.729 184.78 163.467 184.78 163.144V149.11C184.78 148.788 184.623 148.525 184.43 148.525H176.943C176.75 148.525 176.593 148.788 176.593 149.11V163.144C176.593 163.467 176.75 163.729 176.943 163.729Z" fill="url(#paint14_linear_1312_31149)"/>
<path fill-rule="evenodd" clip-rule="evenodd" d="M84.964 181.733L51.403 242.929H55.2846L87.7387 183.944C87.7387 183.944 91.8014 175.256 100.888 177.184C100.888 177.184 89.5121 174.239 84.964 181.733Z" fill="#E4A458"/>
<path fill-rule="evenodd" clip-rule="evenodd" d="M193.122 169.161H171.001V164.633H193.122V169.161Z" fill="white"/>
<path fill-rule="evenodd" clip-rule="evenodd" d="M160.195 90.2512C160.195 90.2512 175.737 91.3556 178.57 102.33C181.404 113.304 168.23 164.467 157.381 178.94C146.531 193.413 119.272 145.891 119.272 145.891L160.195 90.2512Z" fill="url(#paint15_linear_1312_31149)"/>
<mask id="mask4_1312_31149" style="mask-type:alpha" maskUnits="userSpaceOnUse" x="169" y="163" width="25" height="8">
<path fill-rule="evenodd" clip-rule="evenodd" d="M171.001 163.074H193.864V164.633H171.001V168.864H193.864V170.423H171.001H169.442V168.864V164.633V163.074H171.001Z" fill="white"/>
</mask>
<g mask="url(#mask4_1312_31149)">
<path fill-rule="evenodd" clip-rule="evenodd" d="M171.001 163.074H193.864V164.633H171.001V168.864H193.864V170.423H171.001H169.442V168.864V164.633V163.074H171.001Z" fill="url(#paint16_linear_1312_31149)"/>
</g>
<path fill-rule="evenodd" clip-rule="evenodd" d="M196.907 176.51H174.786V171.982H196.907V176.51Z" fill="white"/>
<path fill-rule="evenodd" clip-rule="evenodd" d="M174.786 170.423H197.65V171.982H174.786V176.213H197.65V177.772H174.786H173.227V176.213V171.982V170.423H174.786Z" fill="#805AAF"/>
<path fill-rule="evenodd" clip-rule="evenodd" d="M173.227 170.423H167.034V177.727L173.227 177.772V170.423Z" fill="#69499B"/>
<path fill-rule="evenodd" clip-rule="evenodd" d="M161.003 196.54L156.7 193.098C156.7 193.098 155.666 191.091 136.504 186.496L102.091 177.306C102.091 177.306 93.6831 174.667 88.8929 181.705L55.2262 242.929H60.076L92.5651 184.398C92.5651 184.398 94.752 179.935 101.258 181.81L149.337 194.602C149.337 194.602 155.072 195.374 158.49 201.329L161.003 196.54Z" fill="#CA722C"/>
<mask id="mask5_1312_31149" style="mask-type:alpha" maskUnits="userSpaceOnUse" x="84" y="15" width="29" height="46">
<path fill-rule="evenodd" clip-rule="evenodd" d="M100.966 24.5127C103.663 27.109 105.565 26.0974 107.355 25.0869C108.993 24.1619 110.537 23.2356 112.507 25.0776C109.861 27.9206 104.217 32.9635 104.463 37.6321C104.547 39.2249 107.233 43.8573 108.021 60.8301L95.2528 58.8934C96.7626 43.0983 94.9581 38.8495 94.6259 36.2532C94.316 33.8242 88.9094 24.9138 84.8922 19.5038C83.2795 17.332 84.7893 15.7778 85.7553 15.5602C86.7003 15.3462 87.5704 15.2468 88.3762 15.2468C94.2762 15.2468 96.8199 20.5224 100.966 24.5127Z" fill="white"/>
</mask>
<g mask="url(#mask5_1312_31149)">
<path fill-rule="evenodd" clip-rule="evenodd" d="M100.966 24.5127C103.663 27.109 105.565 26.0974 107.355 25.0869C108.993 24.1619 110.537 23.2356 112.507 25.0776C109.861 27.9206 104.217 32.9635 104.463 37.6321C104.547 39.2249 107.233 43.8573 108.021 60.8301L95.2528 58.8934C96.7626 43.0983 94.9581 38.8495 94.6259 36.2532C94.316 33.8242 88.9094 24.9138 84.8922 19.5038C83.2795 17.332 84.7893 15.7778 85.7553 15.5602C86.7003 15.3462 87.5704 15.2468 88.3762 15.2468C94.2762 15.2468 96.8199 20.5224 100.966 24.5127Z" fill="url(#paint17_linear_1312_31149)"/>
</g>
<g filter="url(#filter3_d_1312_31149)">
<path fill-rule="evenodd" clip-rule="evenodd" d="M151.247 73.2783C151.247 73.2783 169.593 78.3481 170.774 104.168C170.774 104.168 172.047 124.796 163.258 152.141L105.37 136.534C105.37 136.534 110.142 103.051 114.105 96.1208C114.105 96.1208 93.2108 78.7434 92.881 69.0003L93.0857 36.8884L109.667 38.6052L109.511 58.0083C109.511 58.0083 109.144 61.7892 114.48 65.0311C114.48 65.0311 121.092 69.7804 129.208 69.8915C129.208 69.8915 138.501 68.4904 151.247 73.2783Z" fill="#DAE4F1"/>
</g>
<path fill-rule="evenodd" clip-rule="evenodd" d="M90.2927 56.8149L116.949 42.1018L129.374 82.5838L114.027 93.2945L90.2927 56.8149Z" fill="url(#paint18_linear_1312_31149)"/>
<path opacity="0.3" fill-rule="evenodd" clip-rule="evenodd" d="M131.512 70.7804C131.512 70.7804 116.046 80.2801 114.027 93.2942C114.027 93.2942 109.662 91.8236 107.813 89.9664C107.813 89.9664 119.504 71.8214 124.711 69.3831C124.711 69.3831 130.889 70.2465 134.814 69.7307" fill="url(#paint19_linear_1312_31149)"/>
<path fill-rule="evenodd" clip-rule="evenodd" d="M163.207 152.127C163.207 152.127 159.113 176.083 151.032 181.141C142.951 186.199 92.2968 167.491 92.2968 167.491C92.2968 167.491 89.4105 166.333 88.7989 168.174L50.2828 221.302L32.1546 216.435L60.5229 150.048C60.5229 150.048 65.1401 135.715 74.896 133.452C74.896 133.452 82.8766 130.562 93.8499 133.507L163.207 152.127Z" fill="url(#paint20_linear_1312_31149)"/>
<path fill-rule="evenodd" clip-rule="evenodd" d="M125.935 96.4704C125.935 96.4704 122.316 93.604 113.84 105.491C113.84 105.491 109.342 112.96 111.841 112.932L118.424 113.304L124.717 107.412L126.866 99.4129L125.935 96.4704Z" fill="#8BA9CF"/>
<path fill-rule="evenodd" clip-rule="evenodd" d="M109.835 60.8136L118.825 97.224L100.261 91.9543L90.2927 56.4988L109.835 60.8136Z" fill="#1C2A51"/>
<mask id="mask6_1312_31149" style="mask-type:alpha" maskUnits="userSpaceOnUse" x="99" y="80" width="28" height="37">
<path fill-rule="evenodd" clip-rule="evenodd" d="M114.741 84.4359L115.36 82.1273C119.251 85.492 118.591 94.2819 118.591 94.2819L126.628 102.934L122.949 116.636L117.031 113.345L112.726 104.613C110.32 99.175 106.958 96.7261 106.958 96.7261C101.643 94.062 100.065 88.9993 100.065 88.9993C98.8162 81.5531 102.388 80.3462 102.388 80.3462C107.6 80.5088 114.741 84.4359 114.741 84.4359Z" fill="white"/>
</mask>
<g mask="url(#mask6_1312_31149)">
<path fill-rule="evenodd" clip-rule="evenodd" d="M114.741 84.4359L115.36 82.1273C119.251 85.492 118.591 94.2819 118.591 94.2819L126.628 102.934L122.949 116.636L117.031 113.345L112.726 104.613C110.32 99.175 106.958 96.7261 106.958 96.7261C101.643 94.062 100.065 88.9993 100.065 88.9993C98.8162 81.5531 102.388 80.3462 102.388 80.3462C107.6 80.5088 114.741 84.4359 114.741 84.4359Z" fill="url(#paint21_linear_1312_31149)"/>
</g>
<path fill-rule="evenodd" clip-rule="evenodd" d="M149.604 28.5836C149.827 28.7392 150.052 28.8784 150.274 29.0444C156.32 33.5657 158.802 41.4399 156.976 48.7644C156.243 51.7127 152.474 58.0665 151.32 60.4546H151.053C151.053 60.4546 154.444 47.1774 149.926 48.9059C149.926 48.9059 146.865 52.0343 146.177 55.1919C146.177 55.1919 144.064 54.9089 144.785 51.0449C144.785 51.0449 145.186 42.9099 137.636 41.475C130.083 40.0388 128.146 40.6247 124.919 37.1525L123.688 47.5247C123.688 47.5247 117.493 42.6444 119.683 36.0871L119.654 36.0848C118.349 32.7962 118.022 31.1483 118.022 31.1483L120.474 30.3987L118.285 25.7932L123.384 24.8261L121.273 19.9622C141.416 20.3387 149.588 28.5532 149.588 28.5532C149.594 28.5626 149.598 28.5731 149.604 28.5836Z" fill="url(#paint22_linear_1312_31149)"/>
<path fill-rule="evenodd" clip-rule="evenodd" d="M139.761 41.7569C146.067 43.3088 145.612 53.5711 145.612 53.5711L146.7 52.025C149.247 44.7063 152.56 48.237 152.56 48.237C153.955 49.9714 152.194 55.6645 152.194 55.6645L150.029 67.5196C150.131 68.7487 150.529 72.1601 151.884 73.532L149.75 75.2768C148.061 76.6568 146.029 77.5398 143.868 77.8287C140.099 78.3339 135.385 79.135 133.965 79.0648C133.694 79.052 133.306 78.1 132.943 76.9901C132.348 75.1587 132.253 73.2115 132.556 71.3111C132.62 70.9111 132.662 70.496 132.662 70.0995C132.349 70.1042 132.161 70.0995 132.161 70.0995C126.759 71.7836 123.858 58.7005 123.858 58.7005C122.18 49.5773 124.919 37.1526 124.919 37.1526C130.05 40.9792 139.761 41.7569 139.761 41.7569Z" fill="url(#paint23_linear_1312_31149)"/>
<path fill-rule="evenodd" clip-rule="evenodd" d="M134.201 61.4477C134.201 61.4477 132.577 61.6114 130.873 61.6489C129.17 61.6863 127.389 61.5986 127.072 61.0957C127.072 61.0957 127.291 66.5514 130.431 65.4427C130.431 65.4427 132.525 64.865 134.201 61.4477Z" fill="#590909"/>
<path fill-rule="evenodd" clip-rule="evenodd" d="M134.201 61.4478C134.201 61.4478 127.139 61.7542 128.025 64.6066C128.025 64.6066 128.705 66.0368 130.431 65.4427C130.431 65.4427 132.431 64.9703 134.201 61.4478Z" fill="#EF3A32"/>
<path fill-rule="evenodd" clip-rule="evenodd" d="M131.791 41.9299C131.791 41.9299 133.877 41.9584 136.047 42.4883C137.41 42.8212 138.686 43.723 139.875 43.7812C139.875 43.7812 135.343 44.8303 131.791 41.9299Z" fill="url(#paint24_linear_1312_31149)"/>
<path fill-rule="evenodd" clip-rule="evenodd" d="M121.328 43.1027C122.985 42.7729 126.596 41.0654 126.596 41.0654C124.078 43.8944 121.328 43.1027 121.328 43.1027Z" fill="url(#paint25_linear_1312_31149)"/>
<mask id="mask7_1312_31149" style="mask-type:alpha" maskUnits="userSpaceOnUse" x="132" y="48" width="5" height="4">
<path fill-rule="evenodd" clip-rule="evenodd" d="M134.555 48.4345C135.425 48.4766 136.091 49.2801 136.045 50.2273C135.998 51.1758 135.255 51.9102 134.385 51.8658C133.516 51.8237 132.848 51.0203 132.896 50.073C132.941 49.1514 133.642 48.4333 134.481 48.4333C134.506 48.4333 134.53 48.4333 134.555 48.4345Z" fill="white"/>
</mask>
<g mask="url(#mask7_1312_31149)">
<path fill-rule="evenodd" clip-rule="evenodd" d="M134.555 48.4345C135.425 48.4766 136.091 49.2801 136.045 50.2273C135.998 51.1758 135.255 51.9102 134.385 51.8658C133.516 51.8237 132.848 51.0203 132.896 50.073C132.941 49.1514 133.642 48.4333 134.481 48.4333C134.506 48.4333 134.53 48.4333 134.555 48.4345Z" fill="url(#paint26_linear_1312_31149)"/>
</g>
<mask id="mask8_1312_31149" style="mask-type:alpha" maskUnits="userSpaceOnUse" x="123" y="47" width="3" height="4">
<path fill-rule="evenodd" clip-rule="evenodd" d="M124.607 47.6301C125.082 47.6523 125.429 48.4019 125.386 49.3013C125.341 50.2018 124.92 50.9117 124.447 50.8871C123.973 50.8649 123.623 50.1176 123.668 49.2171C123.711 48.3318 124.119 47.6289 124.584 47.6289C124.592 47.6289 124.599 47.6301 124.607 47.6301Z" fill="white"/>
</mask>
<g mask="url(#mask8_1312_31149)">
<path fill-rule="evenodd" clip-rule="evenodd" d="M124.607 47.6301C125.082 47.6523 125.429 48.4019 125.386 49.3013C125.341 50.2018 124.92 50.9117 124.447 50.8871C123.973 50.8649 123.623 50.1176 123.668 49.2171C123.711 48.3318 124.119 47.6289 124.584 47.6289C124.592 47.6289 124.599 47.6301 124.607 47.6301Z" fill="url(#paint27_linear_1312_31149)"/>
</g>
<path d="M138.992 50.3726L147.351 49.1797" stroke="white" stroke-width="1.5"/>
<path fill-rule="evenodd" clip-rule="evenodd" d="M135.085 44.8679C137.388 44.9813 139.136 47.4455 138.992 50.3727C138.849 53.3011 136.865 55.5816 134.564 55.4682C132.262 55.3547 130.511 52.8894 130.656 49.9622C130.8 47.035 132.784 44.7533 135.085 44.8679Z" stroke="white" stroke-width="1.5"/>
<path fill-rule="evenodd" clip-rule="evenodd" d="M124.274 44.3346C125.852 44.4118 127.015 46.8479 126.87 49.7751C126.727 52.7035 125.329 55.0133 123.751 54.9349C122.175 54.8577 121.012 52.4228 121.158 49.4944C121.301 46.566 122.697 44.2575 124.274 44.3346Z" stroke="white" stroke-width="1.5"/>
<path fill-rule="evenodd" clip-rule="evenodd" d="M151.864 73.6028C151.864 73.6028 134.139 79.628 132.715 70.2124L129.864 72.3011L128.229 80.9401L138.883 79.69L149.686 81.5483L152.011 76.047L151.864 73.6028Z" fill="#DAE4F1"/>
<path fill-rule="evenodd" clip-rule="evenodd" d="M264.933 178.717L257.514 241.06H228.897L222.007 178.717H264.933Z" fill="#B1CBD1"/>
<path fill-rule="evenodd" clip-rule="evenodd" d="M265 178L257.829 243H239L245.029 178.232L265 178Z" fill="url(#paint28_linear_1312_31149)"/>
<path fill-rule="evenodd" clip-rule="evenodd" d="M156 243H255V190.044C255 183.392 249.71 178 243.185 178H167.742C161.257 178 156 183.36 156 189.971V243Z" fill="#FFCF7C"/>
<path fill-rule="evenodd" clip-rule="evenodd" d="M241.754 178.717C241.754 178.717 237.23 146.134 236.506 144.204C236.506 144.204 245.669 138.221 239.883 103.578C239.883 103.578 234.1 75.682 223.496 76.5264C223.496 76.5264 212.652 78.2128 217.834 111.349C217.834 111.349 222.894 140.39 233.859 144.366C233.859 144.366 237.595 169.929 237.595 178.717H241.754Z" fill="#3EC8B3"/>
<path fill-rule="evenodd" clip-rule="evenodd" d="M232.325 134.404C232.325 134.404 236.654 147.389 237.407 153.411H235.144L232.867 137.638C232.867 137.638 227.302 132.368 225.564 119.155C225.564 119.155 221.455 81.8012 223.374 76.7478C223.374 76.7478 233.454 117.843 232.325 134.404Z" fill="url(#paint29_linear_1312_31149)"/>
<path fill-rule="evenodd" clip-rule="evenodd" d="M168 243H255V190.044C255 183.392 249.712 178 243.189 178H179.739C173.257 178 168 183.36 168 189.971V243Z" fill="#E4A357"/>
<path fill-rule="evenodd" clip-rule="evenodd" d="M172.444 241.059H250.566V189.202C250.566 185.15 247.281 181.866 243.228 181.866H181.837C176.649 181.866 172.444 186.071 172.444 191.26V241.059Z" fill="#903D2A"/>
<path fill-rule="evenodd" clip-rule="evenodd" d="M172 243H251V189.559C251 185.384 247.678 182 243.58 182H181.499C176.253 182 172 186.333 172 191.68V243Z" fill="url(#paint30_linear_1312_31149)"/>
<path fill-rule="evenodd" clip-rule="evenodd" d="M172 243H238V189.559C238 185.384 234.696 182 230.623 182H181.444C176.228 182 172 186.333 172 191.68V243Z" fill="#5D2015"/>
<path fill-rule="evenodd" clip-rule="evenodd" d="M250.566 216.434H172.444V212.136H250.566V216.434Z" fill="#CB6F33"/>
<path fill-rule="evenodd" clip-rule="evenodd" d="M227.667 212.138H221.558V186.217H227.667V212.138Z" fill="#E2AD8A"/>
<path fill-rule="evenodd" clip-rule="evenodd" d="M221.558 212.138H216.309V186.217H221.558V212.138Z" fill="#CA8454"/>
<path fill-rule="evenodd" clip-rule="evenodd" d="M227.667 208.383H221.558V191.266H227.667V208.383Z" fill="#F7DCCA"/>
<path fill-rule="evenodd" clip-rule="evenodd" d="M208.789 212.138H202.68V189.414H208.789V212.138Z" fill="#E2AD8A"/>
<path fill-rule="evenodd" clip-rule="evenodd" d="M202.68 212.138H197.432V189.414H202.68V212.138Z" fill="#CA8454"/>
<path fill-rule="evenodd" clip-rule="evenodd" d="M208.789 208.845H202.68V193.84H208.789V208.845Z" fill="#F7DCCA"/>
<path fill-rule="evenodd" clip-rule="evenodd" d="M199.665 212.138H193.556V189.414H199.665V212.138Z" fill="#E2AD8A"/>
<path fill-rule="evenodd" clip-rule="evenodd" d="M193.554 212.138H188.307V189.414H193.554V212.138Z" fill="#CA8454"/>
<path fill-rule="evenodd" clip-rule="evenodd" d="M199.665 208.845H193.556V193.84H199.665V208.845Z" fill="#F7DCCA"/>
<path fill-rule="evenodd" clip-rule="evenodd" d="M193.162 194.374L188.334 212.137L183.625 210.738L188.393 193.158L193.162 194.374Z" fill="#E2AD8A"/>
<path fill-rule="evenodd" clip-rule="evenodd" d="M188.393 193.158L183.625 210.738L179.534 209.957L184.241 192.098L188.393 193.158Z" fill="#CA8454"/>
<path fill-rule="evenodd" clip-rule="evenodd" d="M192.172 197.887L187.48 196.524L184.38 207.965L188.986 209.488L192.172 197.887Z" fill="#F7DCCA"/>
<g style="mix-blend-mode:multiply" opacity="0.1">
<path fill-rule="evenodd" clip-rule="evenodd" d="M152.194 55.6638C152.194 55.6638 146.022 67.2207 132.716 70.2111C132.716 70.2111 132.865 72.7618 135.513 74.3324C135.513 74.3324 146.03 69.9234 152.194 55.6638Z" fill="url(#paint31_linear_1312_31149)"/>
</g>
<path fill-rule="evenodd" clip-rule="evenodd" d="M143.343 100.431C143.343 100.431 138.24 108.463 132.111 103.59L125.935 96.4702C125.935 96.4702 123.138 107.217 111.963 112.776C111.963 112.776 115.559 120.559 129.085 127.362C129.085 127.362 139.633 133.4 156.193 113.304L143.343 100.431Z" fill="url(#paint32_linear_1312_31149)"/>
<path fill-rule="evenodd" clip-rule="evenodd" d="M71.2565 236.3L98.591 226.588L98.9886 227.489L73.9604 238.036C73.9604 238.036 72.3652 238.877 71.2565 236.3Z" fill="#C4B8BA"/>
<path fill-rule="evenodd" clip-rule="evenodd" d="M172 178.2C172 178.2 161.935 180.918 161.935 193.372C161.935 205.826 161.935 243 161.935 243H156.052V193.372C156.052 193.372 155.581 186.152 159.391 181.649C163.2 177.146 172 178.2 172 178.2Z" fill="url(#paint33_linear_1312_31149)"/>
<path style="mix-blend-mode:multiply" opacity="0.1" fill-rule="evenodd" clip-rule="evenodd" d="M163.207 152.141C163.207 152.141 147.689 180.2 116.801 176.004C117.46 176.954 140.12 181.867 140.12 181.867C140.12 181.867 143.169 182.158 144.433 182.188C145.618 182.217 146.733 182.21 147.689 182.112C150.849 181.789 152.275 180.2 152.275 180.2C152.275 180.2 152.53 179.949 152.656 179.827C153.129 179.368 153.501 178.898 153.786 178.533C154.326 177.841 155.484 176.004 155.484 176.004C155.484 176.004 156.251 174.739 156.743 173.711C157.236 172.683 158.157 170.423 158.157 170.423C158.157 170.423 160.143 164.637 161.002 161.524C161.862 158.411 163.207 152.141 163.207 152.141Z" fill="url(#paint34_linear_1312_31149)"/>
<path fill-rule="evenodd" clip-rule="evenodd" d="M66.7288 49.8644C66.7288 56.9702 60.9702 62.7288 53.8644 62.7288C46.7599 62.7288 41 56.9702 41 49.8644C41 42.7599 46.7599 37 53.8644 37C60.9702 37 66.7288 42.7599 66.7288 49.8644Z" fill="#EF1D45"/>
<path fill-rule="evenodd" clip-rule="evenodd" d="M53.8644 42.7959C49.989 42.7959 46.8474 45.9375 46.8474 49.8128C46.8474 53.6882 49.989 56.8298 53.8644 56.8298C57.7397 56.8298 60.8813 53.6882 60.8813 49.8128C60.8813 47.9518 60.142 46.167 58.8261 44.8511C57.5102 43.5352 55.7254 42.7959 53.8644 42.7959ZM53.8644 55.6879C50.6197 55.6879 47.9893 53.0575 47.9893 49.8128C47.9893 46.5681 50.6197 43.9378 53.8644 43.9378C57.1091 43.9378 59.7394 46.5681 59.7394 49.8128C59.7394 53.0575 57.1091 55.6879 53.8644 55.6879ZM56.7934 48.831L53.4762 46.6215C53.1139 46.3824 52.6497 46.3612 52.2671 46.5662C51.8845 46.7712 51.6451 47.1694 51.6434 47.6035V52.0226C51.6434 52.6753 52.1726 53.2045 52.8253 53.2045C53.0575 53.2056 53.2846 53.1359 53.4762 53.0047L56.7934 50.7894C57.121 50.57 57.3177 50.2016 57.3177 49.8073C57.3177 49.413 57.121 49.0447 56.7934 48.8253V48.831ZM56.1597 49.8417L52.8425 52.057L52.7854 52.0227V47.5979L52.8425 47.5693L56.1597 49.7789L56.4794 49.305L56.1597 49.8417Z" fill="white"/>
</g>
<defs>
<filter id="filter0_d_1312_31149" x="-96.9186" y="-90.5618" width="209.438" height="209.438" filterUnits="userSpaceOnUse" color-interpolation-filters="sRGB">
<feFlood flood-opacity="0" result="BackgroundImageFix"/>
<feColorMatrix in="SourceAlpha" type="matrix" values="0 0 0 0 0 0 0 0 0 0 0 0 0 0 0 0 0 0 127 0" result="hardAlpha"/>
<feOffset dy="9"/>
<feGaussianBlur stdDeviation="51.5"/>
<feColorMatrix type="matrix" values="0 0 0 0 0 0 0 0 0 0 0 0 0 0 0 0 0 0 0.04 0"/>
<feBlend mode="normal" in2="BackgroundImageFix" result="effect1_dropShadow_1312_31149"/>
<feBlend mode="normal" in="SourceGraphic" in2="effect1_dropShadow_1312_31149" result="shape"/>
</filter>
<filter id="filter1_d_1312_31149" x="-92.3343" y="-90.5618" width="209.438" height="209.438" filterUnits="userSpaceOnUse" color-interpolation-filters="sRGB">
<feFlood flood-opacity="0" result="BackgroundImageFix"/>
<feColorMatrix in="SourceAlpha" type="matrix" values="0 0 0 0 0 0 0 0 0 0 0 0 0 0 0 0 0 0 127 0" result="hardAlpha"/>
<feOffset dy="9"/>
<feGaussianBlur stdDeviation="51.5"/>
<feColorMatrix type="matrix" values="0 0 0 0 0 0 0 0 0 0 0 0 0 0 0 0 0 0 0.04 0"/>
<feBlend mode="normal" in2="BackgroundImageFix" result="effect1_dropShadow_1312_31149"/>
<feBlend mode="normal" in="SourceGraphic" in2="effect1_dropShadow_1312_31149" result="shape"/>
</filter>
<filter id="filter2_d_1312_31149" x="-87.7499" y="-90.5618" width="209.438" height="209.438" filterUnits="userSpaceOnUse" color-interpolation-filters="sRGB">
<feFlood flood-opacity="0" result="BackgroundImageFix"/>
<feColorMatrix in="SourceAlpha" type="matrix" values="0 0 0 0 0 0 0 0 0 0 0 0 0 0 0 0 0 0 127 0" result="hardAlpha"/>
<feOffset dy="9"/>
<feGaussianBlur stdDeviation="51.5"/>
<feColorMatrix type="matrix" values="0 0 0 0 0 0 0 0 0 0 0 0 0 0 0 0 0 0 0.04 0"/>
<feBlend mode="normal" in2="BackgroundImageFix" result="effect1_dropShadow_1312_31149"/>
<feBlend mode="normal" in="SourceGraphic" in2="effect1_dropShadow_1312_31149" result="shape"/>
</filter>
<filter id="filter3_d_1312_31149" x="32.881" y="-18.1116" width="197.957" height="235.252" filterUnits="userSpaceOnUse" color-interpolation-filters="sRGB">
<feFlood flood-opacity="0" result="BackgroundImageFix"/>
<feColorMatrix in="SourceAlpha" type="matrix" values="0 0 0 0 0 0 0 0 0 0 0 0 0 0 0 0 0 0 127 0" result="hardAlpha"/>
<feOffset dy="5"/>
<feGaussianBlur stdDeviation="30"/>
<feColorMatrix type="matrix" values="0 0 0 0 0 0 0 0 0 0 0 0 0 0 0 0 0 0 0.04 0"/>
<feBlend mode="normal" in2="BackgroundImageFix" result="effect1_dropShadow_1312_31149"/>
<feBlend mode="normal" in="SourceGraphic" in2="effect1_dropShadow_1312_31149" result="shape"/>
</filter>
<linearGradient id="paint0_linear_1312_31149" x1="92.8856" y1="219.235" x2="76.6191" y2="219.235" gradientUnits="userSpaceOnUse">
<stop stop-color="#FF7054"/>
<stop offset="1" stop-color="#FFAF50"/>
</linearGradient>
<linearGradient id="paint1_linear_1312_31149" x1="49.2511" y1="225.88" x2="31.839" y2="225.88" gradientUnits="userSpaceOnUse">
<stop stop-color="#FF7054"/>
<stop offset="1" stop-color="#FFAF50"/>
</linearGradient>
<linearGradient id="paint2_linear_1312_31149" x1="215.532" y1="162.508" x2="220.929" y2="140.819" gradientUnits="userSpaceOnUse">
<stop stop-color="#299887"/>
<stop offset="0.576532" stop-color="#3EC8B3"/>
<stop offset="1" stop-color="#3EC8B3"/>
</linearGradient>
<linearGradient id="paint3_linear_1312_31149" x1="84.7462" y1="190.862" x2="52.4446" y2="187.847" gradientUnits="userSpaceOnUse">
<stop stop-color="#442F2F"/>
<stop offset="1" stop-color="#1C1637"/>
</linearGradient>
<linearGradient id="paint4_linear_1312_31149" x1="267.962" y1="118.423" x2="261.765" y2="118.306" gradientUnits="userSpaceOnUse">
<stop stop-color="#4DBC98"/>
<stop offset="0.31015" stop-color="#4DBC98"/>
<stop offset="1" stop-color="#40B08B"/>
</linearGradient>
<linearGradient id="paint5_linear_1312_31149" x1="247.284" y1="105.542" x2="241.528" y2="105.506" gradientUnits="userSpaceOnUse">
<stop stop-color="#199987"/>
<stop offset="0.68985" stop-color="#20A592"/>
<stop offset="1" stop-color="#20A592"/>
</linearGradient>
<linearGradient id="paint6_linear_1312_31149" x1="71.2499" y1="72.0698" x2="71.2499" y2="82.4053" gradientUnits="userSpaceOnUse">
<stop stop-color="#84ECAF"/>
<stop offset="1" stop-color="#3BBB82"/>
</linearGradient>
<linearGradient id="paint7_linear_1312_31149" x1="15.4036" y1="61.0462" x2="25.6574" y2="32.1968" gradientUnits="userSpaceOnUse">
<stop stop-color="#442F2F"/>
<stop offset="1" stop-color="#26213B"/>
</linearGradient>
<linearGradient id="paint8_linear_1312_31149" x1="20.0596" y1="57.1539" x2="68.2381" y2="17.4763" gradientUnits="userSpaceOnUse">
<stop stop-color="#442F2F"/>
<stop offset="1" stop-color="#26213B"/>
</linearGradient>
<linearGradient id="paint9_linear_1312_31149" x1="81.4609" y1="35.543" x2="81.4609" y2="54.4884" gradientUnits="userSpaceOnUse">
<stop stop-color="#1ABEF4"/>
<stop offset="1" stop-color="#072E3B"/>
</linearGradient>
<linearGradient id="paint10_linear_1312_31149" x1="45.3773" y1="33.9713" x2="30.1003" y2="37.6141" gradientUnits="userSpaceOnUse">
<stop stop-color="#FF7154"/>
<stop offset="1" stop-color="#FFAF50"/>
</linearGradient>
<linearGradient id="paint11_linear_1312_31149" x1="40.8107" y1="39.5132" x2="18.215" y2="27.2379" gradientUnits="userSpaceOnUse">
<stop stop-color="#452F2F"/>
<stop offset="1" stop-color="#26223B"/>
</linearGradient>
<linearGradient id="paint12_linear_1312_31149" x1="221.324" y1="162.752" x2="216.677" y2="160.185" gradientUnits="userSpaceOnUse">
<stop stop-color="#8ACA79"/>
<stop offset="0.68985" stop-color="#9CE08A"/>
<stop offset="1" stop-color="#9CE08A"/>
</linearGradient>
<linearGradient id="paint13_linear_1312_31149" x1="214.805" y1="162.685" x2="210.016" y2="160.143" gradientUnits="userSpaceOnUse">
<stop stop-color="#8ACA79"/>
<stop offset="0.68985" stop-color="#9CE08A"/>
<stop offset="1" stop-color="#9CE08A"/>
</linearGradient>
<linearGradient id="paint14_linear_1312_31149" x1="182.623" y1="161.364" x2="176.593" y2="161.364" gradientUnits="userSpaceOnUse">
<stop stop-color="white"/>
<stop offset="0.31015" stop-color="white"/>
<stop offset="1" stop-color="#D3C9C9"/>
</linearGradient>
<linearGradient id="paint15_linear_1312_31149" x1="190.105" y1="98.747" x2="169.48" y2="125.803" gradientUnits="userSpaceOnUse">
<stop stop-color="#384A72"/>
<stop offset="0.252718" stop-color="#384A72"/>
<stop offset="1" stop-color="#23345B"/>
</linearGradient>
<linearGradient id="paint16_linear_1312_31149" x1="193.863" y1="170.423" x2="169.441" y2="170.423" gradientUnits="userSpaceOnUse">
<stop stop-color="#FF7054"/>
<stop offset="1" stop-color="#FFAF50"/>
</linearGradient>
<linearGradient id="paint17_linear_1312_31149" x1="89.6088" y1="-6.96729" x2="130.653" y2="6.66724" gradientUnits="userSpaceOnUse">
<stop stop-color="#FF7054"/>
<stop offset="1" stop-color="#FFAF50"/>
</linearGradient>
<linearGradient id="paint18_linear_1312_31149" x1="130.924" y1="79.4288" x2="103.173" y2="89.9093" gradientUnits="userSpaceOnUse">
<stop stop-color="#EEEEEE" stop-opacity="0.01"/>
<stop offset="1" stop-color="#5693DF"/>
</linearGradient>
<linearGradient id="paint19_linear_1312_31149" x1="123.973" y1="70.9598" x2="129.622" y2="82.5733" gradientUnits="userSpaceOnUse">
<stop stop-color="#DAE4F1"/>
<stop offset="1" stop-color="#23345B" stop-opacity="0.01"/>
</linearGradient>
<linearGradient id="paint20_linear_1312_31149" x1="169.639" y1="194.342" x2="85.397" y2="246.315" gradientUnits="userSpaceOnUse">
<stop stop-color="#442F2F"/>
<stop offset="1" stop-color="#26213B"/>
</linearGradient>
<linearGradient id="paint21_linear_1312_31149" x1="124.076" y1="121.521" x2="93.9453" y2="117.1" gradientUnits="userSpaceOnUse">
<stop stop-color="#FF7054"/>
<stop offset="1" stop-color="#FFAF50"/>
</linearGradient>
<linearGradient id="paint22_linear_1312_31149" x1="159.504" y1="48.2047" x2="129.455" y2="60.5159" gradientUnits="userSpaceOnUse">
<stop stop-color="#442F2F"/>
<stop offset="1" stop-color="#26213B"/>
</linearGradient>
<linearGradient id="paint23_linear_1312_31149" x1="152.155" y1="80.166" x2="122.42" y2="79.4264" gradientUnits="userSpaceOnUse">
<stop stop-color="#FF7054"/>
<stop offset="1" stop-color="#FFAF50"/>
</linearGradient>
<linearGradient id="paint24_linear_1312_31149" x1="139.106" y1="44.2317" x2="133.824" y2="40.1303" gradientUnits="userSpaceOnUse">
<stop stop-color="#442F2F"/>
<stop offset="1" stop-color="#26213B"/>
</linearGradient>
<linearGradient id="paint25_linear_1312_31149" x1="126.226" y1="43.2879" x2="121.423" y2="41.8528" gradientUnits="userSpaceOnUse">
<stop stop-color="#442F2F"/>
<stop offset="1" stop-color="#26213B"/>
</linearGradient>
<linearGradient id="paint26_linear_1312_31149" x1="135.973" y1="51.9429" x2="132.824" y2="51.8121" gradientUnits="userSpaceOnUse">
<stop stop-color="#442F2F"/>
<stop offset="1" stop-color="#26213B"/>
</linearGradient>
<linearGradient id="paint27_linear_1312_31149" x1="125.363" y1="50.9229" x2="123.645" y2="50.8992" gradientUnits="userSpaceOnUse">
<stop stop-color="#442F2F"/>
<stop offset="1" stop-color="#26213B"/>
</linearGradient>
<linearGradient id="paint28_linear_1312_31149" x1="257.884" y1="226.065" x2="244.177" y2="225.851" gradientUnits="userSpaceOnUse">
<stop stop-color="#8AA6AC"/>
<stop offset="0.68985" stop-color="#B1CBD1"/>
<stop offset="1" stop-color="#B1CBD1"/>
</linearGradient>
<linearGradient id="paint29_linear_1312_31149" x1="233.863" y1="137.901" x2="224.356" y2="137.97" gradientUnits="userSpaceOnUse">
<stop stop-color="#299887"/>
<stop offset="0.576532" stop-color="#3EC8B3"/>
<stop offset="1" stop-color="#3EC8B3"/>
</linearGradient>
<linearGradient id="paint30_linear_1312_31149" x1="229.379" y1="227.107" x2="187.827" y2="225.011" gradientUnits="userSpaceOnUse">
<stop stop-color="#994129"/>
<stop offset="1" stop-color="#994129" stop-opacity="0.01"/>
</linearGradient>
<linearGradient id="paint31_linear_1312_31149" x1="151.801" y1="75.9112" x2="136.738" y2="79.3815" gradientUnits="userSpaceOnUse">
<stop stop-color="#EDF1F4"/>
<stop offset="1" stop-color="#1E2022"/>
<stop offset="1" stop-color="#1E2022"/>
</linearGradient>
<linearGradient id="paint32_linear_1312_31149" x1="115.798" y1="107.506" x2="139.153" y2="93.9395" gradientUnits="userSpaceOnUse">
<stop stop-color="#C3D4EA"/>
<stop offset="1" stop-color="#DAE4F1"/>
</linearGradient>
<linearGradient id="paint33_linear_1312_31149" x1="165.767" y1="226.844" x2="155.96" y2="226.824" gradientUnits="userSpaceOnUse">
<stop stop-color="#FFCF7C"/>
<stop offset="0.518334" stop-color="#FFCF7C"/>
<stop offset="1" stop-color="#EEB95E"/>
</linearGradient>
<linearGradient id="paint34_linear_1312_31149" x1="103.09" y1="89.6257" x2="159.617" y2="179.708" gradientUnits="userSpaceOnUse">
<stop stop-color="#6C3E3B"/>
<stop offset="0.590372" stop-color="#6C3E3B"/>
<stop offset="1" stop-color="#4E2421"/>
</linearGradient>
</defs>
</svg>
